 <svg  version="1.0" xmlns="http://www.w3.org/2000/svg"  width="300.000000pt" height="649.000000pt" viewBox="0 0 300.000000 649.000000"  preserveAspectRatio="xMidYMid meet">  <g transform="translate(0.000000,649.000000) scale(0.100000,-0.100000)" fill="#6d5a5a" stroke="none"> <path d="M1159 5203 c-13 -16 -12 -17 4 -4 16 13 21 21 13 21 -2 0 -10 -8 -17 -17z"/> <path d="M1712 5190 c0 -14 2 -19 5 -12 2 6 2 18 0 25 -3 6 -5 1 -5 -13z"/> <path d="M1104 5171 c-12 -14 -39 -62 -61 -106 -22 -44 -53 -105 -70 -135 -30 -56 -50 -123 -56 -195 -2 -22 -12 -62 -22 -88 -14 -38 -15 -50 -5 -62 14 -17 50 -21 50 -5 0 5 -7 7 -15 4 -23 -9 -28 21 -10 55 8 17 20 68 26 114 16 129 79 249 154 292 54 32 138 61 203 70 53 7 84 25 34 19 -15 -2 -48 -4 -74 -6 -27 -2 -48 -7 -48 -12 0 -4 -6 -6 -14 -3 -8 3 -17 1 -20 -6 -5 -9 -8 -9 -12 1 -5 10 -8 10 -18 -2 -6 -8 -22 -16 -36 -18 -16 -2 -29 -13 -38 -32 -7 -16 -15 -27 -17 -24 -7 7 30 93 56 130 27 37 21 44 -7 9z"/> <path d="M1741 5184 c0 -11 3 -14 6 -6 3 7 2 16 -1 19 -3 4 -6 -2 -5 -13z"/> <path d="M1135 5170 c-3 -5 -2 -10 4 -10 5 0 13 5 16 10 3 6 2 10 -4 10 -5 0 -13 -4 -16 -10z"/> <path d="M1177 5153 c-4 -3 -7 -11 -7 -17 0 -6 5 -5 12 2 6 6 9 14 7 17 -3 3 -9 2 -12 -2z"/> <path d="M1696 5145 c-3 -9 0 -15 9 -15 9 0 12 6 9 15 -4 8 -7 15 -9 15 -2 0 -5 -7 -9 -15z"/> <path d="M1376 5143 c-14 -15 -2 -18 67 -20 52 -1 64 1 42 7 -47 13 -103 19 -109 13z"/> <path d="M1648 5123 c-19 -19 -31 -24 -40 -17 -7 6 -29 11 -48 12 -32 2 -31 0 13 -12 56 -16 77 -32 27 -22 -19 4 -53 9 -75 11 -40 4 -40 4 -5 -3 44 -10 92 -41 83 -55 -3 -6 -1 -7 5 -3 7 4 12 12 12 18 0 5 13 30 30 54 16 24 28 44 27 44 -1 0 -14 -12 -29 -27z"/> <path d="M1754 5120 c3 -14 7 -47 11 -75 3 -27 10 -68 16 -90 5 -22 18 -161 29 -310 18 -263 33 -362 67 -448 17 -44 89 -157 107 -169 21 -14 18 3 -8 42 -14 22 -26 42 -26 44 0 3 -13 25 -30 49 -53 80 -81 220 -95 487 -9 155 -47 430 -66 473 -9 21 -9 20 -5 -3z"/> <path d="M1096 5115 c-9 -26 -7 -32 5 -12 6 10 9 21 6 23 -2 3 -7 -2 -11 -11z"/> <path d="M1370 5100 c0 -12 27 -12 55 0 16 7 13 9 -17 9 -21 1 -38 -3 -38 -9z"/> <path d="M1458 5103 c7 -3 16 -2 19 1 4 3 -2 6 -13 5 -11 0 -14 -3 -6 -6z"/> <path d="M1295 5076 c-57 -19 -193 -91 -221 -117 -13 -13 -24 -17 -24 -11 0 6 9 16 19 22 11 5 30 25 42 42 19 29 16 27 -25 -12 -25 -24 -44 -50 -42 -57 3 -7 1 -15 -4 -18 -15 -9 -50 -94 -49 -118 1 -12 -1 -42 -4 -67 l-6 -45 11 45 c6 25 15 47 18 50 4 3 13 23 20 45 24 75 38 93 97 121 73 34 163 94 143 95 -8 0 10 8 40 19 30 10 48 18 40 18 -8 1 -33 -5 -55 -12z m-54 -45 c-25 -19 -138 -81 -148 -81 -11 0 20 30 31 30 6 1 36 16 66 35 60 36 90 46 51 16z m-218 -176 c-3 -9 -8 -14 -10 -11 -3 3 -2 9 2 15 9 16 15 13 8 -4z"/> <path d="M1195 5060 c-8 -13 5 -13 25 0 13 8 13 10 -2 10 -9 0 -20 -4 -23 -10z"/> <path d="M1595 4989 c-11 -16 -1 -19 13 -3 7 8 8 14 3 14 -5 0 -13 -5 -16 -11z"/> <path d="M1750 4956 c0 -14 4 -27 8 -30 5 -3 6 8 4 25 -5 35 -12 38 -12 5z"/> <path d="M1260 4926 c0 -2 14 -6 30 -8 17 -3 30 -1 30 4 0 4 -13 8 -30 8 -16 0 -30 -2 -30 -4z"/> <path d="M987 4884 c-10 -19 -21 -75 -26 -124 -5 -48 -17 -103 -26 -120 -9 -18 -14 -34 -11 -37 3 -3 11 7 18 22 11 24 13 25 19 8 7 -16 8 -15 8 5 1 12 4 22 7 22 13 0 99 -83 107 -102 4 -11 3 -27 -2 -35 -7 -13 -11 -12 -29 7 -11 12 -24 20 -29 17 -5 -3 -15 -2 -22 2 -8 6 -21 1 -33 -11 -10 -10 -23 -16 -28 -13 -9 5 -16 -14 -21 -55 -3 -19 18 -99 32 -123 5 -10 12 -48 15 -85 3 -55 11 -110 19 -142 0 -3 4 -23 9 -45 15 -81 27 -115 40 -115 11 0 11 7 0 43 -26 86 -43 184 -45 252 -1 39 -5 75 -9 80 -15 20 -40 110 -40 141 0 36 16 40 45 10 13 -13 15 -20 6 -29 -8 -8 -11 -7 -11 6 0 9 -4 17 -10 17 -11 0 -13 -13 -4 -23 4 -3 7 -24 8 -47 3 -53 17 -67 42 -39 19 21 19 21 -1 18 -13 -3 -21 2 -23 15 -6 26 18 66 39 66 26 0 72 59 66 87 -2 13 0 26 4 29 12 7 11 61 -1 69 -6 3 -7 -1 -4 -10 3 -8 3 -26 0 -40 -6 -24 -7 -24 -25 -7 -13 12 -15 22 -9 35 5 10 8 20 6 21 -2 1 -12 8 -22 16 -18 14 -19 14 -8 -7 22 -41 12 -45 -29 -12 l-40 32 5 79 c4 44 13 96 21 115 20 47 13 53 -8 7z m39 -371 c35 -15 37 -17 15 -21 -15 -2 -32 4 -45 17 -25 25 -20 26 30 4z"/> <path d="M1760 4890 c-8 -69 1 -181 19 -227 11 -26 20 -42 20 -35 1 7 -5 23 -11 35 -7 12 -15 74 -19 137 -3 63 -7 104 -9 90z"/> <path d="M1170 4890 c-9 -6 -10 -10 -3 -10 6 0 15 5 18 10 8 12 4 12 -15 0z"/> <path d="M1509 4863 c-13 -16 -12 -17 4 -4 16 13 21 21 13 21 -2 0 -10 -8 -17 -17z"/> <path d="M1110 4828 c-12 -22 -12 -22 6 -6 10 10 15 20 12 24 -4 3 -12 -5 -18 -18z"/> <path d="M1086 4783 c-6 -14 -5 -15 5 -6 7 7 10 15 7 18 -3 3 -9 -2 -12 -12z"/> <path d="M1011 4744 c0 -11 3 -14 6 -6 3 7 2 16 -1 19 -3 4 -6 -2 -5 -13z"/> <path d="M1090 4754 c0 -2 9 -8 20 -14 11 -6 20 -7 20 -2 0 6 -9 12 -20 15 -11 3 -20 3 -20 1z"/> <path d="M1360 4756 c0 -2 7 -7 16 -10 8 -3 12 -2 9 4 -6 10 -25 14 -25 6z"/> <path d="M1162 4698 c-10 -13 -28 -67 -20 -58 9 8 39 70 34 70 -2 0 -8 -6 -14 -12z"/> <path d="M1198 4693 c-9 -10 -19 -28 -22 -39 -4 -12 -15 -31 -25 -43 -18 -20 -20 -21 -24 -4 -3 10 -3 -4 0 -32 2 -27 7 -58 10 -69 4 -16 1 -18 -20 -14 -19 4 -24 1 -20 -9 4 -10 14 -12 36 -7 23 5 28 3 23 -7 -4 -8 1 -4 10 9 9 12 25 22 35 22 10 0 21 5 24 10 3 6 15 10 26 10 10 0 19 4 19 9 0 5 -11 8 -24 7 -13 0 -23 -4 -21 -7 2 -3 -11 -12 -30 -21 -41 -18 -55 -8 -55 39 0 23 8 40 25 55 13 11 22 25 19 30 -3 4 0 8 6 8 6 0 8 5 5 10 -4 6 1 22 9 35 19 29 16 33 -6 8z"/> <path d="M1295 4693 c-27 -8 -54 -19 -60 -24 -5 -6 4 -5 20 1 17 7 57 18 90 25 37 8 49 13 30 14 -16 0 -52 -7 -80 -16z"/> <path d="M1122 4660 c0 -19 2 -27 5 -17 2 9 2 25 0 35 -3 9 -5 1 -5 -18z"/> <path d="M1315 4653 c-33 -7 -129 -57 -117 -61 6 -2 23 4 37 14 15 9 54 25 88 35 54 15 48 24 -8 12z"/> <path d="M1784 4543 c-10 -80 -7 -154 6 -186 9 -19 9 -18 5 8 -8 50 -8 117 0 183 4 34 5 62 2 62 -3 0 -9 -30 -13 -67z"/> <path d="M1390 4589 c0 -5 9 -9 20 -9 11 0 20 2 20 4 0 2 -9 6 -20 9 -11 3 -20 1 -20 -4z"/> <path d="M1162 4540 c0 -14 2 -19 5 -12 2 6 2 18 0 25 -3 6 -5 1 -5 -13z"/> <path d="M1300 4550 c-21 -7 -22 -8 -5 -10 20 -1 20 -1 0 -10 -29 -11 -46 -34 -51 -67 -4 -23 3 -36 32 -63 l36 -35 -16 33 c-9 17 -23 32 -31 32 -10 0 -14 9 -13 25 l2 25 21 -24 c11 -13 34 -32 50 -41 26 -15 27 -15 10 -1 -11 9 -29 23 -40 30 -18 12 -14 13 30 9 44 -4 53 -2 74 21 22 23 23 28 10 41 -8 8 -24 16 -36 18 -35 5 -39 16 -4 12 19 -2 29 0 26 5 -7 12 -59 11 -95 0z m90 -46 c0 -12 -74 -35 -96 -30 -36 9 -29 24 14 29 67 7 82 7 82 1z"/> <path d="M1726 4547 c3 -10 9 -15 12 -12 3 3 0 11 -7 18 -10 9 -11 8 -5 -6z"/> <path d="M1045 4439 c-16 -16 -24 -29 -17 -29 6 0 12 5 12 12 0 6 3 9 6 6 9 -10 -13 -76 -31 -94 -9 -9 -14 -23 -11 -31 3 -8 6 -26 6 -40 0 -21 3 -23 14 -14 12 10 20 9 40 -4 27 -18 25 -37 -9 -65 -22 -18 -32 -4 -12 18 21 23 21 29 0 29 -23 0 -33 -15 -33 -52 0 -48 12 -59 40 -35 23 20 60 19 68 -1 2 -4 14 -3 26 2 16 8 45 7 102 -4 81 -15 105 -15 63 1 -56 21 -155 39 -174 32 -23 -9 -55 4 -55 22 0 6 9 8 20 5 22 -6 81 21 118 54 21 18 34 20 85 16 36 -3 54 -2 46 4 -10 6 -3 9 21 9 22 0 30 3 22 8 -21 14 -164 -13 -207 -39 -22 -13 -41 -27 -43 -31 -2 -4 -10 -8 -18 -8 -26 0 -14 31 19 46 22 10 24 13 7 9 -54 -14 -80 -17 -80 -8 0 5 6 33 14 63 24 92 23 151 -2 149 -4 0 -20 -13 -37 -30z m29 -78 c-16 -85 -25 -104 -38 -82 -5 8 29 155 41 174 14 23 13 -10 -3 -92z"/> <path d="M1174 4445 c-12 -8 -25 -11 -29 -7 -5 4 -5 1 -1 -6 4 -7 12 -10 17 -7 5 4 21 13 37 21 15 7 20 14 12 14 -9 0 -25 -7 -36 -15z"/> <path d="M1216 4395 c-3 -8 -1 -15 4 -15 6 0 10 7 10 15 0 8 -2 15 -4 15 -2 0 -6 -7 -10 -15z"/> <path d="M1156 4351 c-10 -11 -13 -21 -7 -25 10 -7 24 10 27 32 3 16 0 15 -20 -7z"/> <path d="M1811 4337 c-1 -12 -5 -16 -13 -11 -8 5 -7 0 2 -11 14 -16 15 -17 18 -1 2 9 1 22 -1 29 -3 7 -6 4 -6 -6z"/> <path d="M1340 4325 c7 -8 17 -15 22 -15 5 0 3 7 -6 15 -8 8 -18 15 -22 15 -3 0 -1 -7 6 -15z"/> <path d="M1818 4278 c-3 -7 -5 -42 -6 -78 0 -53 1 -59 8 -30 7 31 10 31 14 0 1 -9 14 -15 17 -7 3 8 -14 57 -20 57 -4 0 -5 16 -3 35 4 35 -2 47 -10 23z"/> <path d="M1790 4260 c0 -5 5 -10 11 -10 5 0 7 5 4 10 -3 6 -8 10 -11 10 -2 0 -4 -4 -4 -10z"/> <path d="M1631 4234 c0 -11 3 -14 6 -6 3 7 2 16 -1 19 -3 4 -6 -2 -5 -13z"/> <path d="M1230 4221 c0 -5 9 -7 20 -4 11 3 20 7 20 9 0 2 -9 4 -20 4 -11 0 -20 -4 -20 -9z"/> <path d="M1318 4223 c6 -2 18 -2 25 0 6 3 1 5 -13 5 -14 0 -19 -2 -12 -5z"/> <path d="M1280 4210 c0 -5 5 -10 10 -10 6 0 10 5 10 10 0 6 -4 10 -10 10 -5 0 -10 -4 -10 -10z"/> <path d="M1328 4193 c7 -3 16 -2 19 1 4 3 -2 6 -13 5 -11 0 -14 -3 -6 -6z"/> <path d="M1375 4160 c3 -5 11 -10 16 -10 6 0 7 5 4 10 -3 6 -11 10 -16 10 -6 0 -7 -4 -4 -10z"/> <path d="M1597 4144 c-13 -18 -14 -22 -3 -18 8 3 17 13 20 21 10 25 3 23 -17 -3z"/> <path d="M1725 4140 c3 -5 8 -10 11 -10 2 0 4 5 4 10 0 6 -5 10 -11 10 -5 0 -7 -4 -4 -10z"/> <path d="M1060 4115 c-7 -14 -17 -25 -22 -25 -4 0 -8 -8 -8 -17 0 -13 3 -14 12 -5 7 7 19 12 27 12 11 0 11 -4 -3 -19 -28 -30 -21 -108 9 -108 19 0 19 5 0 23 -8 8 -11 22 -8 31 4 11 8 13 11 5 2 -7 8 -12 13 -12 6 0 5 8 -1 20 -6 12 -8 30 -5 41 6 19 12 20 88 14 103 -8 94 10 -14 29 -46 8 -73 17 -71 24 4 21 -14 13 -28 -13z"/> <path d="M1831 4098 c11 -18 28 -45 37 -60 10 -16 20 -28 25 -28 9 0 -22 62 -36 71 -13 9 2 31 15 23 7 -4 8 -2 4 4 -4 6 -13 9 -20 6 -8 -3 -17 -1 -21 5 -3 6 -10 11 -15 11 -6 0 0 -15 11 -32z"/> <path d="M1716 4103 c-6 -14 -5 -15 5 -6 7 7 10 15 7 18 -3 3 -9 -2 -12 -12z"/> <path d="M1345 4101 c-3 -5 -1 -12 4 -15 5 -3 11 1 15 9 6 16 -9 21 -19 6z"/> <path d="M1880 4080 c0 -4 7 -13 15 -20 13 -11 14 -10 9 4 -10 27 3 18 25 -18 23 -36 27 -51 11 -41 -5 3 -18 2 -27 -4 -15 -8 -12 -9 12 -7 17 2 36 4 43 5 6 0 12 6 12 11 0 6 -6 10 -12 10 -7 0 -23 15 -34 33 -19 30 -54 46 -54 27z"/> <path d="M1256 4063 c-3 -6 4 -13 15 -16 10 -3 19 -1 19 4 0 5 7 9 15 9 8 0 15 3 15 8 0 12 -59 8 -64 -5z"/> <path d="M1118 4053 c7 -3 16 -2 19 1 4 3 -2 6 -13 5 -11 0 -14 -3 -6 -6z"/> <path d="M1521 4014 c-14 -49 -7 -56 9 -9 7 20 10 39 7 42 -3 3 -10 -12 -16 -33z"/> <path d="M1230 4031 c0 -7 -5 -9 -12 -5 -7 5 -8 3 -3 -5 5 -9 10 -10 18 -2 6 6 8 14 4 18 -4 3 -7 1 -7 -6z"/> <path d="M1344 4032 c3 -5 0 -13 -6 -15 -9 -4 -10 -6 -1 -6 17 -1 25 16 12 25 -7 4 -9 3 -5 -4z"/> <path d="M1125 4010 c-4 -7 0 -18 9 -26 9 -8 11 -9 6 -2 -14 17 -12 32 3 20 9 -8 17 -8 27 0 13 8 12 9 -1 5 -9 -3 -21 -1 -27 5 -6 6 -12 6 -17 -2z"/> <path d="M1202 4000 c16 -26 31 -30 35 -10 1 6 -1 5 -4 -1 -4 -8 -13 -4 -26 12 l-19 24 14 -25z"/> <path d="M1260 4016 c0 -2 8 -10 18 -17 15 -13 16 -12 3 4 -13 16 -21 21 -21 13z"/> <path d="M2064 3992 c4 -7 1 -12 -8 -12 -8 0 -17 -4 -20 -9 -4 -5 3 -7 14 -4 26 7 34 19 19 29 -8 4 -9 3 -5 -4z"/> <path d="M1840 3980 c-9 -6 -10 -10 -3 -10 6 0 15 5 18 10 8 12 4 12 -15 0z"/> <path d="M1180 3970 c0 -5 10 -15 23 -21 22 -12 22 -12 3 10 -21 23 -26 26 -26 11z"/> <path d="M1770 3943 c-25 -13 -36 -21 -25 -17 11 3 30 9 43 11 21 5 38 20 31 28 -2 2 -24 -8 -49 -22z"/> <path d="M1140 3938 c0 -7 -15 -29 -33 -48 -40 -43 -97 -117 -116 -150 -66 -115 -83 -148 -110 -219 -17 -44 -31 -87 -31 -96 0 -8 -19 -43 -42 -78 -125 -183 -147 -229 -115 -240 6 -2 26 2 44 9 32 14 97 9 88 -7 -3 -4 -1 -10 5 -14 9 -6 15 26 11 66 -1 9 7 58 19 110 11 53 17 107 14 126 -7 38 22 136 38 127 7 -4 8 -2 4 4 -10 16 82 194 96 186 7 -4 8 -3 4 5 -8 12 26 63 71 110 13 13 32 39 44 57 39 63 37 25 -2 -52 -21 -42 -36 -81 -32 -87 4 -6 1 -7 -7 -2 -9 6 -10 1 -5 -16 5 -18 4 -20 -4 -9 -5 8 -13 11 -17 7 -4 -3 -2 -12 4 -20 8 -9 3 -35 -19 -97 -17 -47 -39 -125 -49 -174 -10 -50 -25 -95 -35 -105 -16 -15 -17 -15 -11 4 3 11 17 64 31 117 21 84 39 138 70 211 4 9 3 17 -3 17 -11 0 -73 -174 -96 -270 -35 -148 -36 -151 -30 -80 6 70 68 271 114 376 16 35 27 64 24 64 -6 0 -66 -130 -89 -193 -9 -27 -19 -46 -22 -43 -3 3 2 24 10 48 28 79 28 83 8 47 -27 -48 -130 -463 -118 -475 2 -2 12 13 23 33 10 21 31 51 47 68 15 16 25 36 22 43 -3 7 -1 10 5 7 5 -3 21 11 37 30 28 36 177 165 190 165 4 0 -40 -45 -97 -101 -58 -56 -96 -95 -85 -88 11 8 49 43 85 77 80 78 117 106 125 93 3 -6 -20 -28 -52 -49 -58 -40 -100 -79 -92 -86 2 -2 42 25 89 60 47 35 90 62 97 60 7 -3 15 0 19 6 4 7 3 8 -4 4 -19 -11 -14 9 6 27 10 10 23 14 27 10 5 -5 4 -1 -3 8 -6 9 -9 19 -5 22 3 4 2 7 -4 7 -5 0 -10 7 -10 15 0 8 4 12 10 8 5 -3 26 11 47 32 22 22 43 34 50 30 7 -5 -1 -16 -25 -32 -20 -14 -34 -27 -31 -30 3 -3 24 6 46 21 48 31 50 32 45 6 -2 -11 0 -20 6 -20 5 0 9 3 9 8 0 4 9 13 21 20 17 11 24 11 37 0 15 -12 16 -11 3 5 -9 12 -22 16 -35 13 -26 -7 -68 3 -60 15 3 5 10 6 16 3 7 -4 8 -2 4 5 -6 9 -11 9 -22 0 -11 -9 -14 -9 -14 0 0 7 -13 2 -31 -11 -17 -13 -48 -34 -70 -48 -21 -14 -66 -44 -99 -68 -68 -49 -76 -45 -67 35 4 35 2 42 -5 29 -6 -10 -8 -40 -6 -67 5 -44 2 -50 -21 -66 -14 -9 -31 -24 -38 -32 -7 -9 -13 -12 -13 -7 0 6 -6 1 -14 -9 -13 -18 -14 -18 -9 8 3 15 10 27 15 27 6 0 7 7 4 16 -4 9 -1 23 5 30 6 8 8 14 3 14 -5 0 -4 4 1 8 6 4 20 47 33 96 21 82 74 210 91 221 4 2 6 -10 4 -28 -2 -29 -2 -30 6 -7 l8 25 5 -25 c3 -14 3 9 1 50 l-3 75 15 -40 c9 -23 13 -52 9 -68 -9 -44 -10 -258 0 -240 10 18 12 114 3 163 l-7 35 16 -35 c12 -25 15 -52 11 -95 -3 -36 -2 -52 3 -40 14 33 11 110 -5 148 -21 52 -17 81 5 33 9 -21 20 -34 23 -29 4 5 -2 27 -12 49 -10 21 -23 58 -30 80 -7 28 -18 43 -32 47 -12 3 -18 10 -14 16 3 6 -1 11 -9 11 -9 0 -16 -6 -16 -12z m126 -393 c-1 -14 -11 -35 -23 -46 -19 -19 -23 -20 -42 -7 -20 14 -20 15 22 45 23 17 42 32 43 32 0 1 0 -10 0 -24z m-421 -265 c-13 -70 -21 -98 -29 -90 -14 14 -26 13 -21 -2 3 -8 -16 -24 -45 -39 -28 -15 -50 -24 -50 -19 0 4 34 59 75 123 41 63 75 121 75 128 0 7 3 10 6 6 4 -3 -2 -51 -11 -107z m72 58 c-3 -7 -5 -2 -5 12 0 14 2 19 5 13 2 -7 2 -19 0 -25z m-11 -44 c-4 -9 -9 -15 -11 -12 -3 3 -3 13 1 22 4 9 9 15 11 12 3 -3 3 -13 -1 -22z m-80 -140 c-3 -9 -6 -18 -6 -20 0 -2 -7 -4 -15 -4 -18 0 -20 26 -2 33 23 10 29 7 23 -9z"/> <path d="M1230 3515 c-7 -8 -17 -12 -23 -8 -6 3 -7 1 -3 -5 8 -13 39 -1 51 18 10 16 -11 12 -25 -5z"/> <path d="M735 3160 c-3 -6 1 -7 9 -4 18 7 21 14 7 14 -6 0 -13 -4 -16 -10z"/> <path d="M2140 3877 c0 -4 9 -18 21 -30 40 -42 106 -133 151 -207 40 -66 118 -230 118 -247 0 -4 -16 8 -35 27 -18 18 -33 37 -32 43 2 10 -75 68 -82 61 -2 -2 24 -32 58 -67 34 -35 73 -80 87 -99 21 -30 53 -128 79 -242 3 -15 8 -27 10 -24 6 6 -32 177 -51 226 -8 23 -19 42 -23 42 -4 0 -6 13 -3 29 2 16 -4 49 -14 73 -44 103 -138 268 -153 268 -4 0 -15 15 -26 33 -20 35 -105 127 -105 114z m215 -407 c3 -5 2 -10 -4 -10 -5 0 -13 5 -16 10 -3 6 -2 10 4 10 5 0 13 -4 16 -10z"/> <path d="M2180 3770 c33 -26 52 -25 21 0 -13 11 -28 20 -35 20 -6 0 0 -9 14 -20z"/> <path d="M1147 3716 c-4 -10 -7 -25 -6 -34 0 -11 4 -9 10 7 5 13 8 29 6 35 -2 5 -6 2 -10 -8z"/> <path d="M1050 3701 c0 -5 5 -13 10 -16 6 -3 10 -2 10 4 0 5 -4 13 -10 16 -5 3 -10 2 -10 -4z"/> <path d="M2236 3677 c3 -10 9 -15 12 -12 3 3 0 11 -7 18 -10 9 -11 8 -5 -6z"/> <path d="M1127 3628 c-2 -7 -1 -22 4 -33 6 -16 8 -14 8 13 1 33 -4 41 -12 20z"/> <path d="M1170 3585 c-7 -25 -10 -48 -8 -51 3 -2 11 16 17 42 15 61 8 68 -9 9z"/> <path d="M1377 3583 c-10 -10 -32 -18 -49 -18 -32 0 -49 -29 -23 -39 17 -6 13 -38 -5 -44 -8 -3 -10 0 -5 8 5 9 4 11 -4 6 -6 -4 -9 -11 -6 -15 2 -5 -22 -25 -55 -45 -65 -41 -79 -56 -27 -31 77 38 -11 -18 -108 -68 -98 -50 -203 -133 -188 -148 4 -4 44 10 87 31 44 22 83 37 88 34 4 -3 8 -1 8 4 0 6 10 8 22 4 13 -3 19 -1 15 5 -4 6 23 22 61 37 37 15 75 32 84 37 24 12 31 11 22 -3 -4 -7 -4 -10 1 -6 4 4 15 2 23 -5 11 -8 14 -8 9 0 -5 7 2 14 15 18 13 4 37 12 53 20 17 7 41 16 55 19 l25 7 -25 -15 c-30 -18 -21 -21 14 -5 14 7 23 16 20 20 -3 5 -1 9 5 9 5 0 11 -5 13 -11 2 -7 9 -5 17 5 12 14 11 16 -7 16 -18 0 -148 -38 -200 -58 -11 -4 -13 -1 -7 8 5 8 4 11 -2 7 -5 -3 -74 -31 -154 -62 -79 -31 -159 -65 -178 -76 -18 -11 -35 -18 -38 -16 -7 8 59 42 173 90 62 26 114 47 117 47 3 0 34 13 69 29 45 21 65 26 70 18 6 -9 8 -9 8 0 0 6 22 17 50 24 27 7 47 16 44 21 -3 4 5 4 18 0 13 -5 37 -5 53 -1 25 6 26 7 6 8 l-23 1 23 21 c27 23 23 22 -73 -11 -38 -13 -68 -28 -68 -32 0 -5 -4 -6 -10 -3 -5 3 -49 -12 -97 -33 -87 -39 -143 -60 -133 -49 3 3 43 25 90 49 124 65 185 100 188 110 2 4 9 5 14 2 7 -4 8 -2 4 4 -11 17 -23 15 -46 -10 -11 -12 -23 -18 -27 -15 -3 4 -1 7 5 7 7 0 12 5 12 10 0 7 -7 7 -21 0 -11 -7 -23 -9 -26 -6 -3 3 11 13 30 22 21 10 33 22 30 28 -4 6 1 5 10 -3 10 -8 20 -11 24 -7 3 3 0 6 -8 6 -8 1 3 10 24 21 43 23 45 25 15 24 -28 -1 -88 -32 -88 -45 0 -6 -5 -10 -11 -10 -5 0 -7 5 -3 11 4 8 0 8 -15 0 -11 -7 -20 -17 -18 -23 1 -6 -3 -12 -9 -15 -6 -2 -11 4 -11 13 0 15 64 62 78 57 3 -1 6 5 6 13 0 19 -9 18 -30 -3z m-17 -103 c12 -7 10 -11 -10 -19 -14 -6 -42 -22 -62 -36 -21 -14 -38 -22 -38 -18 0 15 60 64 70 58 6 -4 10 -3 9 2 -4 24 6 29 31 13z"/> <path d="M1501 3560 c-18 -11 0 -19 23 -10 16 5 17 8 4 12 -8 4 -21 3 -27 -2z"/> <path d="M2296 3551 c-3 -5 1 -11 9 -14 9 -4 12 -1 8 9 -6 16 -10 17 -17 5z"/> <path d="M1493 3508 c-28 -14 -30 -31 -3 -24 11 3 30 9 41 12 17 5 19 8 8 15 -17 11 -18 10 -46 -3z"/> <path d="M890 3460 c-7 -28 -10 -53 -7 -56 3 -3 10 18 16 47 15 68 7 75 -9 9z"/> <path d="M1598 3443 c6 -2 18 -2 25 0 6 3 1 5 -13 5 -14 0 -19 -2 -12 -5z"/> <path d="M1553 3413 c9 -2 23 -2 30 0 6 3 -1 5 -18 5 -16 0 -22 -2 -12 -5z"/> <path d="M2340 3320 c33 -33 62 -60 65 -60 13 0 -72 93 -98 106 -18 10 -8 -5 33 -46z"/> <path d="M1550 3347 c-53 -26 -77 -50 -54 -55 16 -4 17 -15 5 -60 -12 -42 11 -191 39 -253 23 -52 27 -35 4 19 -35 83 -35 169 0 105 23 -42 19 -18 -4 27 -35 68 -23 123 30 143 10 4 8 6 -7 6 -12 1 -25 -4 -29 -11 -7 -11 -22 12 -23 38 -1 13 62 44 89 44 11 0 20 5 20 10 0 16 -21 12 -70 -13z"/> <path d="M1650 3361 c0 -7 19 -11 48 -11 l47 0 -3 -97 c-2 -54 -1 -95 2 -92 3 3 7 44 9 92 1 47 5 88 8 91 4 4 92 -24 154 -49 13 -5 17 -5 10 2 -15 15 -115 51 -160 58 -22 3 -57 8 -77 12 -25 4 -38 2 -38 -6z"/> <path d="M1452 3343 c-7 -10 -10 -12 -6 -4 4 9 -2 8 -20 -4 -15 -10 -25 -19 -23 -21 7 -7 88 21 88 31 0 18 -26 16 -39 -2z"/> <path d="M1366 3308 c5 -8 0 -9 -16 -5 -12 3 -34 1 -49 -4 -14 -6 -82 -26 -151 -44 -69 -18 -147 -44 -175 -56 -27 -13 -59 -23 -69 -23 -11 -1 -21 -8 -24 -16 -5 -13 -3 -13 14 0 18 14 18 14 5 -2 -7 -10 -17 -16 -21 -13 -4 3 -13 -2 -20 -10 -9 -11 -9 -15 -1 -15 8 0 9 -5 1 -19 -12 -24 -13 -34 -1 -27 5 4 11 0 14 -6 3 -10 9 -10 23 -3 33 19 56 11 74 -23 17 -30 18 -31 23 -10 4 12 4 24 2 27 -3 2 -5 -2 -5 -10 -1 -8 -7 1 -15 20 -17 38 -19 53 -5 31 5 -8 10 -10 10 -5 0 6 -9 21 -20 35 -16 20 -20 22 -20 8 0 -19 -34 -58 -50 -58 -5 0 -10 9 -10 19 0 37 95 90 177 98 24 3 40 9 37 14 -3 5 2 9 10 9 9 0 16 4 16 8 0 5 6 9 13 9 6 1 48 10 91 22 44 12 86 21 95 21 9 1 29 7 46 14 25 10 26 13 12 19 -12 5 -16 3 -11 -5z"/> <path d="M1954 3278 c104 -71 160 -102 100 -56 -16 12 -31 25 -34 28 -5 5 -57 32 -75 37 -5 2 -1 -2 9 -9z"/> <path d="M1366 3254 c-11 -43 -26 -58 -40 -39 -9 12 -11 9 -12 -19 0 -19 4 -32 9 -29 5 3 6 -3 2 -15 -4 -13 2 -40 14 -68 24 -53 25 -58 10 -49 -6 4 -35 7 -64 6 -30 0 -57 4 -60 9 -6 10 12 14 55 10 14 -1 22 1 18 5 -4 4 -23 7 -42 7 -30 0 -37 4 -42 23 -3 13 -4 28 -1 32 3 5 2 15 -2 22 -5 8 -10 -1 -14 -26 -4 -22 -2 -39 3 -41 6 -2 7 -8 4 -13 -13 -22 19 -39 75 -39 31 0 61 -4 67 -8 6 -4 21 -29 33 -56 12 -27 24 -47 27 -43 3 3 1 14 -5 25 -14 27 -14 35 2 27 6 -4 5 -1 -3 7 -17 14 -45 94 -41 118 2 13 1 13 -9 0 -9 -12 -10 -9 -6 15 5 23 4 26 -4 15 -8 -11 -9 -5 -4 25 8 47 12 55 25 55 6 0 8 -3 6 -8 -17 -25 36 -196 79 -258 31 -46 30 -40 -13 46 -22 46 -35 90 -42 150 -10 81 -9 86 11 103 25 21 70 19 80 -3 5 -11 7 -8 7 9 1 17 -3 22 -14 17 -8 -3 -15 -1 -15 4 0 5 -13 5 -30 0 -17 -5 -33 -9 -37 -10 -3 -1 -9 4 -13 10 -5 7 -10 1 -14 -16z"/> <path d="M1883 3265 c0 -8 4 -12 9 -9 5 3 6 10 3 15 -9 13 -12 11 -12 -6z"/> <path d="M1267 3231 c-4 -17 -3 -21 5 -13 5 5 8 16 6 23 -3 8 -7 3 -11 -10z"/> <path d="M1592 3217 c1 -19 -2 -40 -7 -48 -6 -11 -5 -11 4 -3 15 14 24 84 11 84 -5 0 -9 -15 -8 -33z"/> <path d="M1897 3244 c-3 -3 -2 -14 3 -23 4 -9 13 -27 19 -41 10 -23 10 -22 5 10 -4 19 -10 37 -15 38 -5 2 -7 8 -3 13 6 10 1 12 -9 3z"/> <path d="M1951 3234 c0 -11 3 -14 6 -6 3 7 2 16 -1 19 -3 4 -6 -2 -5 -13z"/> <path d="M1773 3200 c0 -25 2 -35 4 -22 2 12 2 32 0 45 -2 12 -4 2 -4 -23z"/> <path d="M1120 3213 c1 -5 10 -24 21 -43 11 -19 18 -27 15 -17 -4 11 -9 30 -12 43 -6 22 -25 35 -24 17z"/> <path d="M2386 3175 c44 -61 44 -61 44 -48 0 6 -18 30 -40 54 l-41 44 37 -50z"/> <path d="M1166 3194 c-5 -13 -3 -14 6 -7 7 6 20 13 28 16 10 4 8 6 -6 6 -12 1 -25 -6 -28 -15z"/> <path d="M1277 3204 c-7 -12 18 -84 29 -84 3 0 3 8 -1 18 -4 9 -10 30 -14 47 -4 17 -10 25 -14 19z"/> <path d="M1964 3186 c-3 -8 -4 -23 -2 -33 3 -11 6 -6 9 15 6 34 2 42 -7 18z"/> <path d="M1612 3160 c0 -14 2 -19 5 -12 2 6 2 18 0 25 -3 6 -5 1 -5 -13z"/> <path d="M2447 3138 c8 -24 19 -48 24 -54 5 -7 12 -22 14 -35 3 -12 10 -27 16 -33 16 -16 4 25 -31 102 -33 72 -44 81 -23 20z"/> <path d="M1010 3145 c0 -14 -8 -38 -17 -52 -12 -18 -13 -24 -4 -19 13 8 41 66 41 86 0 5 -4 10 -10 10 -5 0 -10 -11 -10 -25z"/> <path d="M1060 3156 c0 -17 72 -144 101 -177 17 -19 26 -26 19 -16 -7 9 -10 17 -6 17 3 0 -14 28 -39 62 -26 36 -43 69 -40 77 3 9 3 12 -1 8 -5 -4 -14 3 -21 15 -7 13 -12 19 -13 14z"/> <path d="M1182 3135 c0 -16 2 -22 5 -12 2 9 2 23 0 30 -3 6 -5 -1 -5 -18z"/> <path d="M1774 3142 c3 -6 2 -13 -4 -17 -5 -3 -10 -16 -9 -28 1 -21 2 -20 10 3 8 23 8 22 5 -8 -1 -18 1 -35 6 -38 5 -3 8 15 7 41 -2 25 -7 49 -12 52 -6 3 -7 1 -3 -5z"/> <path d="M1932 3108 c-1 -25 -5 -55 -8 -65 -5 -17 -5 -17 6 0 6 9 9 39 7 65 l-3 47 -2 -47z"/> <path d="M1621 3115 c0 -11 5 -40 12 -64 10 -33 15 -40 20 -27 4 10 7 25 7 34 0 14 -2 14 -9 3 -7 -10 -12 -2 -19 30 -5 24 -10 35 -11 24z"/> <path d="M1977 3012 c6 -157 11 -164 12 -15 1 67 -3 124 -8 127 -4 3 -6 -47 -4 -112z"/> <path d="M1140 3105 c0 -6 23 -51 51 -100 50 -88 105 -155 184 -225 37 -33 38 -33 22 -7 -10 15 -41 51 -69 80 -28 28 -64 75 -80 104 -17 31 -34 50 -41 46 -7 -4 -8 0 -4 11 4 10 3 15 -3 11 -5 -3 -20 16 -34 42 -14 26 -25 43 -26 38z m89 -135 c11 -24 11 -24 -3 -6 -9 11 -16 24 -16 30 0 12 5 7 19 -24z"/> <path d="M1166 3097 c3 -10 9 -15 12 -12 3 3 0 11 -7 18 -10 9 -11 8 -5 -6z"/> <path d="M656 3071 c-9 -16 -16 -36 -16 -43 1 -7 10 5 20 26 11 22 18 41 16 44 -3 2 -12 -10 -20 -27z"/> <path d="M2390 3093 c0 -13 29 -38 35 -31 3 3 -4 13 -15 23 -11 10 -20 13 -20 8z"/> <path d="M2440 3091 c0 -6 4 -13 10 -16 6 -3 7 1 4 9 -7 18 -14 21 -14 7z"/> <path d="M1044 3045 c-5 -24 -7 -42 -2 -39 8 5 23 73 16 79 -2 2 -8 -16 -14 -40z"/> <path d="M2380 3060 c12 -16 24 -30 26 -30 3 0 -4 14 -16 30 -12 17 -24 30 -26 30 -3 0 4 -13 16 -30z"/> <path d="M1732 3055 c0 -16 2 -22 5 -12 2 9 2 23 0 30 -3 6 -5 -1 -5 -18z"/> <path d="M670 3035 c-12 -19 -25 -33 -30 -30 -18 11 -32 -68 -27 -144 6 -86 9 -101 31 -153 26 -60 37 -53 15 9 -24 69 -34 173 -22 227 8 38 35 67 49 53 15 -15 14 -78 -2 -110 -20 -38 -20 -126 1 -189 l15 -43 -6 40 c-3 22 -8 58 -11 79 -5 35 -4 39 12 32 18 -7 18 -6 1 13 -20 22 -15 51 8 51 8 0 14 10 14 23 0 12 1 37 3 55 1 20 -5 40 -16 52 -11 12 -16 29 -13 45 7 33 4 32 -22 -10z"/> <path d="M2430 3030 c6 -11 13 -20 16 -20 2 0 0 9 -6 20 -6 11 -13 20 -16 20 -2 0 0 -9 6 -20z"/> <path d="M1762 3020 c0 -14 2 -19 5 -12 2 6 2 18 0 25 -3 6 -5 1 -5 -13z"/> <path d="M1792 3015 c0 -16 2 -22 5 -12 2 9 2 23 0 30 -3 6 -5 -1 -5 -18z"/> <path d="M1656 3004 c-4 -9 -4 -19 -1 -22 2 -3 7 3 11 12 4 9 4 19 1 22 -2 3 -7 -3 -11 -12z"/> <path d="M1742 2975 c0 -16 2 -22 5 -12 2 9 2 23 0 30 -3 6 -5 -1 -5 -18z"/> <path d="M1667 2965 c-4 -8 -2 -15 3 -15 6 0 9 -3 8 -7 -3 -10 19 -73 26 -73 5 0 -20 100 -27 106 -3 3 -7 -2 -10 -11z"/> <path d="M1775 2970 c-3 -5 -1 -10 4 -10 6 0 11 5 11 10 0 6 -2 10 -4 10 -3 0 -8 -4 -11 -10z"/> <path d="M1793 2953 c-7 -15 -11 -28 -9 -31 6 -6 28 38 24 48 -2 5 -9 -3 -15 -17z"/> <path d="M1911 2934 c0 -11 3 -14 6 -6 3 7 2 16 -1 19 -3 4 -6 -2 -5 -13z"/> <path d="M853 2926 c-6 -8 -9 -17 -6 -20 4 -3 -1 -6 -10 -6 -24 0 -39 -34 -27 -62 l10 -23 -1 25 c-2 50 -1 52 33 44 28 -6 31 -5 20 8 -7 9 -10 23 -6 32 7 19 3 20 -13 2z"/> <path d="M2460 2931 c0 -6 4 -13 10 -16 6 -3 7 1 4 9 -7 18 -14 21 -14 7z"/> <path d="M2491 2924 c0 -11 3 -14 6 -6 3 7 2 16 -1 19 -3 4 -6 -2 -5 -13z"/> <path d="M1050 2922 c0 -12 77 -80 110 -97 17 -9 30 -13 30 -10 0 2 14 -4 31 -14 18 -11 39 -17 47 -13 11 4 13 2 7 -8 -6 -9 -4 -11 4 -6 7 5 11 9 9 11 -34 31 -99 73 -95 61 4 -9 3 -16 -2 -16 -8 0 -95 63 -119 87 -15 15 -22 16 -22 5z m190 -113 l25 -20 -32 16 c-18 8 -33 18 -33 20 0 10 16 4 40 -16z"/> <path d="M755 2909 c-4 -6 -5 -12 -2 -15 2 -3 7 2 10 11 7 17 1 20 -8 4z"/> <path d="M776 2894 c-9 -24 -2 -26 12 -4 7 11 8 20 3 20 -5 0 -12 -7 -15 -16z"/> <path d="M1902 2890 c0 -14 2 -19 5 -12 2 6 2 18 0 25 -3 6 -5 1 -5 -13z"/> <path d="M1390 2891 c0 -6 4 -13 10 -16 6 -3 7 1 4 9 -7 18 -14 21 -14 7z"/> <path d="M1810 2880 c-6 -11 -8 -20 -6 -20 3 0 10 9 16 20 6 11 8 20 6 20 -3 0 -10 -9 -16 -20z"/> <path d="M1022 2870 c0 -14 2 -19 5 -12 2 6 2 18 0 25 -3 6 -5 1 -5 -13z"/> <path d="M1431 2874 c0 -11 3 -14 6 -6 3 7 2 16 -1 19 -3 4 -6 -2 -5 -13z"/> <path d="M1550 2881 c0 -6 4 -13 10 -16 6 -3 7 1 4 9 -7 18 -14 21 -14 7z"/> <path d="M864 2845 c22 -19 42 -32 45 -29 6 6 -31 38 -64 55 -11 5 -2 -6 19 -26z"/> <path d="M905 2860 c10 -11 20 -20 22 -20 2 0 -2 9 -9 20 -7 11 -17 20 -22 20 -5 0 -1 -9 9 -20z"/> <path d="M1835 2869 c-4 -5 -4 -13 -1 -16 3 -4 6 0 6 8 0 11 2 11 10 -1 6 -9 10 -10 10 -3 0 17 -17 25 -25 12z"/> <path d="M1981 2854 c0 -11 3 -14 6 -6 3 7 2 16 -1 19 -3 4 -6 -2 -5 -13z"/> <path d="M745 2842 c2 -2 -5 -25 -16 -50 -15 -34 -20 -64 -17 -107 2 -39 -1 -59 -8 -58 -6 1 -11 -3 -12 -10 -1 -7 -9 -37 -18 -67 -22 -73 -28 -120 -16 -120 5 0 8 11 7 25 -2 14 1 27 6 31 5 3 9 -14 9 -37 0 -24 5 -57 12 -75 8 -23 9 -40 1 -56 -8 -18 -6 -27 7 -41 17 -17 18 -16 15 35 -1 29 -7 66 -13 81 -16 38 -15 131 2 186 l13 45 16 -33 c14 -29 15 -40 3 -97 -8 -35 -11 -64 -9 -64 3 0 0 -6 -6 -14 -10 -11 -9 -21 3 -45 9 -16 20 -33 26 -36 5 -3 10 -17 10 -30 0 -13 4 -27 10 -30 5 -3 14 -20 19 -38 l9 -32 1 31 c1 17 -5 37 -13 43 -25 21 -38 122 -25 195 7 36 16 66 20 66 9 0 39 -75 39 -98 0 -10 -4 -22 -9 -28 -15 -14 -27 -119 -12 -110 6 4 11 27 11 51 0 24 4 46 9 49 16 11 19 71 4 101 -9 17 -28 44 -44 61 -47 49 -56 174 -18 245 9 18 13 19 25 7 12 -12 12 -19 -3 -48 -19 -39 -21 -146 -3 -180 18 -33 22 -17 9 34 -12 49 -7 139 9 159 6 7 8 24 5 40 -4 23 -10 27 -34 25 -15 -1 -26 -4 -24 -6z"/> <path d="M1052 2825 c0 -16 2 -22 5 -12 2 9 2 23 0 30 -3 6 -5 -1 -5 -18z"/> <path d="M1887 2831 c-4 -17 -3 -21 5 -13 5 5 8 16 6 23 -3 8 -7 3 -11 -10z"/> <path d="M1726 2831 c-3 -4 1 -17 10 -27 14 -18 15 -18 5 2 -6 12 -7 24 -4 28 3 3 4 6 0 6 -3 0 -8 -4 -11 -9z"/> <path d="M1031 2804 c0 -11 3 -14 6 -6 3 7 2 16 -1 19 -3 4 -6 -2 -5 -13z"/> <path d="M1149 2806 c18 -21 96 -62 171 -88 80 -27 48 -6 -48 32 -45 18 -95 42 -110 53 -21 17 -24 17 -13 3z"/> <path d="M873 2783 c-7 -2 -13 -21 -13 -40 0 -40 7 -41 12 -3 2 14 7 31 11 38 9 13 8 13 -10 5z"/> <path d="M1300 2777 c0 -3 15 -10 32 -16 18 -6 28 -7 23 -2 -12 10 -55 25 -55 18z"/> <path d="M1858 2733 c5 -21 7 -23 10 -9 2 10 0 22 -6 28 -6 6 -7 0 -4 -19z"/> <path d="M1766 2737 c3 -10 9 -15 12 -12 3 3 0 11 -7 18 -10 9 -11 8 -5 -6z"/> <path d="M1087 2679 c7 -7 15 -10 18 -7 3 3 -2 9 -12 12 -14 6 -15 5 -6 -5z"/> <path d="M1148 2655 c18 -9 61 -18 95 -20 l62 -5 -70 14 c-38 8 -81 17 -95 21 -18 4 -16 1 8 -10z"/> <path d="M2141 2584 c0 -11 3 -14 6 -6 3 7 2 16 -1 19 -3 4 -6 -2 -5 -13z"/> <path d="M2090 2515 c0 -5 5 -17 10 -25 5 -8 10 -10 10 -5 0 6 -5 17 -10 25 -5 8 -10 11 -10 5z"/> <path d="M2111 2454 c0 -11 3 -14 6 -6 3 7 2 16 -1 19 -3 4 -6 -2 -5 -13z"/> <path d="M1641 2424 c0 -11 3 -14 6 -6 3 7 2 16 -1 19 -3 4 -6 -2 -5 -13z"/> <path d="M1890 2380 c0 -5 5 -10 11 -10 5 0 7 5 4 10 -3 6 -8 10 -11 10 -2 0 -4 -4 -4 -10z"/> <path d="M732 2284 c-11 -37 -5 -63 21 -96 24 -31 27 -20 5 17 -16 27 -19 45 -14 75 8 50 3 51 -12 4z"/> </g> </svg> 