<?xml version="1.0" standalone="no"?>
<!DOCTYPE svg PUBLIC "-//W3C//DTD SVG 20010904//EN"
 "http://www.w3.org/TR/2001/REC-SVG-20010904/DTD/svg10.dtd">
<svg version="1.0" xmlns="http://www.w3.org/2000/svg"
 width="450.000000pt" height="253.000000pt" viewBox="0 0 450.000000 253.000000"
 preserveAspectRatio="xMidYMid meet">
<metadata>
Created by potrace 1.10, written by Peter Selinger 2001-2011
</metadata>
<g transform="translate(0.000000,253.000000) scale(0.100000,-0.100000)"
fill="#6d5f5f" stroke="none">
<path d="M1987 2454 c-48 -7 -92 -16 -98 -20 -6 -3 -25 -8 -42 -11 -18 -3 -58
-16 -89 -29 -32 -13 -64 -24 -73 -24 -8 0 -15 -3 -15 -8 0 -4 -22 -15 -50 -25
-27 -10 -50 -22 -50 -28 0 -14 -49 -3 -109 24 -25 12 -50 20 -55 19 -4 -2 -14
2 -21 8 -7 6 -17 10 -21 9 -5 -1 -21 3 -35 9 -68 28 -315 39 -410 19 -41 -9
-85 -19 -99 -21 -80 -15 -101 -20 -165 -42 -38 -14 -77 -32 -85 -40 -14 -15
-13 -15 10 -9 14 4 48 17 77 30 52 23 274 71 368 79 68 5 215 -11 300 -34 87
-23 221 -77 218 -87 -1 -4 37 11 84 34 95 46 244 96 343 114 98 18 310 16 413
-4 125 -25 247 -70 360 -134 l98 -55 -38 -27 c-21 -15 -75 -67 -121 -115 -54
-57 -88 -86 -97 -82 -27 10 -16 27 13 20 26 -6 26 -5 -6 15 -30 20 -33 25 -26
54 14 55 11 112 -6 113 -36 1 -79 16 -84 30 -3 8 -15 14 -26 14 -24 0 -26 -9
-3 -25 16 -12 16 -14 1 -29 -9 -9 -22 -16 -28 -16 -7 0 -8 -6 0 -19 5 -11 10
-33 10 -49 0 -21 8 -35 25 -46 30 -20 32 -53 9 -117 -8 -24 -17 -68 -18 -96
-2 -35 -9 -60 -22 -74 -19 -21 -98 -79 -108 -79 -3 0 -3 53 -1 118 3 76 2 106
-4 84 -11 -43 -12 -44 -50 -31 -17 6 -40 9 -51 6 -17 -4 -20 0 -20 34 0 21 -4
39 -10 39 -5 0 -10 -10 -10 -22 0 -35 -33 -218 -39 -218 -3 0 -24 33 -45 73
-21 39 -50 87 -64 105 l-24 34 31 32 c17 17 42 60 56 95 31 81 40 91 80 91 19
0 39 8 50 20 23 26 11 39 -14 16 -24 -22 -45 -12 -36 18 11 39 14 76 6 76 -5
0 -11 -7 -15 -15 -3 -8 -10 -15 -15 -15 -5 0 -3 14 6 31 21 42 9 48 -17 8 -22
-34 -22 -31 -4 34 l7 22 -26 -24 c-15 -14 -29 -40 -32 -60 -14 -83 -12 -81
-55 -81 -22 0 -40 -4 -40 -9 0 -5 9 -7 20 -4 11 3 20 0 20 -6 0 -6 -20 -11
-47 -12 -27 0 -41 -3 -33 -6 46 -15 46 -15 25 -23 -11 -5 -40 -9 -65 -10 -46
-2 -46 -4 4 -15 l29 -6 -23 -24 -23 -24 -86 73 c-77 66 -219 166 -236 166 -3
0 -4 -4 -1 -9 4 -5 0 -12 -6 -14 -8 -3 -6 -6 5 -6 9 -1 17 -6 17 -12 0 -5 5
-7 10 -4 6 3 10 1 10 -4 0 -6 7 -11 15 -11 8 0 15 -5 15 -11 0 -5 4 -8 8 -5 5
3 9 -1 9 -9 0 -13 -2 -13 -17 0 -9 8 -36 21 -60 30 -24 9 -63 26 -87 40 -24
13 -40 19 -37 13 5 -8 1 -9 -12 -4 -10 5 -30 11 -44 16 -36 10 -295 4 -354 -9
-27 -6 -54 -10 -60 -10 -14 2 -78 -22 -73 -27 2 -2 50 5 106 16 119 23 290 28
376 11 105 -21 267 -94 359 -161 21 -16 44 -27 50 -23 6 3 8 2 3 -2 -4 -5 7
-23 24 -41 28 -29 31 -37 25 -76 -17 -128 -18 -214 -4 -244 9 -16 15 -56 16
-90 0 -65 8 -86 68 -169 28 -39 34 -55 28 -75 -4 -14 -8 -52 -10 -85 -1 -33
-15 -94 -30 -135 -15 -43 -29 -105 -32 -147 -5 -71 -5 -72 -36 -79 -17 -3 -53
-17 -80 -30 -28 -13 -51 -24 -53 -24 -1 0 9 33 23 73 33 91 76 178 121 242
l35 50 -37 -40 c-38 -42 -105 -169 -126 -242 -7 -24 -15 -43 -19 -43 -4 0 -10
17 -14 39 -9 59 -63 129 -126 164 -45 26 -65 31 -129 33 -56 1 -75 5 -73 14 2
7 6 41 9 75 12 127 -54 226 -172 261 l-57 16 43 25 c125 72 271 126 390 143
l64 9 -71 -4 c-91 -6 -204 -43 -323 -106 -52 -27 -95 -49 -97 -49 -2 0 8 29
21 65 15 38 25 87 25 116 0 44 -4 55 -37 90 -43 45 -108 73 -135 58 -23 -12
-23 -8 3 36 27 45 22 115 -10 149 -27 28 -87 40 -130 25 -50 -17 -36 -29 27
-23 50 5 60 3 80 -16 21 -19 23 -29 19 -74 -3 -28 -8 -63 -12 -78 -8 -30 -8
-30 60 -48 66 -17 67 -19 45 -86 -57 -173 -57 -397 3 -569 11 -33 24 -65 29
-71 4 -6 5 -14 1 -17 -3 -4 -2 -7 4 -7 6 0 14 -12 17 -26 4 -14 15 -38 25 -53
28 -41 52 -81 49 -83 -1 -2 9 -14 22 -29 14 -14 34 -36 46 -50 46 -54 215
-199 232 -199 6 0 17 -6 24 -13 18 -17 137 -75 171 -83 15 -3 27 -10 27 -14 0
-4 16 -11 35 -14 30 -6 36 -12 46 -49 6 -23 15 -52 20 -65 14 -37 11 -97 -9
-149 -34 -88 -23 -190 25 -245 21 -24 47 -9 73 41 16 32 18 52 14 121 -4 65
-2 87 11 107 12 17 14 34 9 56 -12 53 -13 71 -3 102 l9 30 182 1 c145 0 196 4
243 18 33 10 71 20 85 23 14 2 43 13 66 23 22 11 45 20 51 20 14 0 136 61 151
77 7 7 18 13 23 13 31 0 308 254 293 269 -2 3 5 14 15 25 15 16 99 172 106
196 1 3 5 12 8 20 28 62 44 158 45 276 1 71 2 132 2 136 0 4 9 9 19 13 15 4
18 13 15 38 -20 161 -19 166 30 219 25 28 51 42 105 58 82 25 95 46 67 104
-53 111 23 232 185 293 113 42 150 46 205 23 31 -14 50 -17 67 -10 21 9 21 9
-4 9 -15 1 -44 8 -65 17 -77 32 -226 -1 -317 -70 -23 -17 -57 -53 -74 -80 -28
-40 -33 -58 -33 -105 0 -37 7 -70 20 -96 11 -22 20 -40 20 -41 0 -1 -17 -4
-37 -8 -152 -25 -241 -147 -200 -273 9 -26 13 -51 11 -55 -3 -4 -22 -8 -42 -8
-54 0 -150 -50 -198 -102 -40 -44 -57 -89 -66 -178 -3 -21 -10 -26 -67 -37
-123 -25 -217 -102 -243 -199 -8 -28 -15 -39 -20 -31 -5 8 -8 7 -8 -5 0 -10
-5 -18 -11 -18 -7 0 -8 7 -4 18 4 9 9 28 11 41 3 13 20 62 39 109 39 95 58
180 53 232 -3 29 -8 36 -36 44 -49 14 -159 -10 -244 -52 -40 -20 -76 -38 -80
-40 -5 -2 -8 3 -8 12 0 8 28 46 61 83 36 39 75 98 94 138 19 39 47 87 64 108
37 47 43 77 33 144 -5 29 -7 55 -4 57 2 3 20 -1 39 -9 28 -12 39 -12 56 -3 12
7 25 12 29 13 3 0 10 4 15 9 4 5 3 6 -4 2 -6 -3 -14 -2 -18 4 -7 11 55 41 67
34 5 -3 8 -1 8 4 0 5 14 12 32 16 22 4 37 1 52 -11 21 -18 21 -18 3 3 l-18 22
88 12 c130 19 395 -3 378 -31 -4 -5 1 -6 9 -3 8 3 38 -2 66 -11 28 -9 54 -15
57 -12 7 7 -111 42 -212 63 -112 23 -299 15 -412 -18 -84 -25 -160 -67 -142
-79 7 -4 5 -8 -4 -12 -8 -3 -23 1 -34 8 -10 8 -26 15 -35 15 -10 0 -18 7 -18
16 0 12 7 15 25 12 21 -4 23 -3 14 9 -29 34 185 222 337 297 103 51 229 89
352 107 88 13 113 30 35 23 -62 -6 -76 -8 -88 -15 -5 -3 -21 -5 -35 -5 -14 1
-27 -2 -30 -6 -3 -4 -18 -9 -33 -12 -42 -7 -68 -16 -114 -38 -24 -11 -49 -21
-55 -22 -25 -5 -53 -20 -72 -38 -10 -9 -23 -15 -29 -11 -23 14 139 102 263
143 87 28 285 38 401 19 70 -11 79 -14 54 -20 -24 -5 -20 -7 20 -6 28 0 97
-10 155 -23 108 -23 172 -34 135 -24 -11 4 -24 10 -30 14 -9 7 -73 24 -130 34
-11 2 -47 11 -80 19 -63 16 -114 23 -258 33 -83 6 -126 2 -257 -27 -71 -16
-179 -66 -260 -121 -30 -21 -61 -38 -68 -38 -7 0 -29 11 -50 23 -20 13 -56 32
-79 42 -24 10 -43 22 -43 25 0 4 -26 15 -57 25 -32 11 -62 22 -68 26 -13 9
-130 40 -174 45 -19 3 -38 7 -43 10 -19 12 -267 10 -351 -2z m108 -260 c-8
-47 -115 -152 -115 -115 0 5 18 25 40 43 45 40 69 80 71 123 2 26 2 27 6 6 3
-13 2 -39 -2 -57z m786 45 c-13 -11 -26 -17 -29 -14 -7 6 29 34 43 34 6 0 -1
-9 -14 -20z m-754 -28 c-2 -10 0 -25 5 -34 6 -13 5 -15 -5 -11 -12 4 -14 20
-8 57 0 4 4 7 7 7 4 0 4 -8 1 -19z m363 -21 c0 -5 -5 -10 -11 -10 -5 0 -7 5
-4 10 3 6 8 10 11 10 2 0 4 -4 4 -10z m33 -28 c-5 -14 -3 -14 15 2 12 11 22
14 22 8 0 -7 -4 -12 -10 -12 -6 0 -8 -24 -5 -60 3 -33 7 -87 10 -120 4 -51 2
-60 -11 -60 -15 0 -16 13 -12 101 5 91 4 98 -8 69 -8 -18 -11 -36 -8 -41 3 -5
0 -9 -5 -9 -6 0 -11 4 -11 9 0 4 -12 20 -26 35 -22 22 -25 28 -14 41 7 9 20
13 29 10 12 -5 13 -3 4 6 -8 8 -9 16 -1 29 14 22 39 15 31 -8z m-63 -4 c0 -19
-2 -20 -10 -8 -13 19 -13 30 0 30 6 0 10 -10 10 -22z m-736 -27 c-2 -3 -12 3
-22 13 -16 17 -16 18 5 5 12 -7 20 -15 17 -18z m386 19 c0 -5 -5 -10 -11 -10
-5 0 -7 5 -4 10 3 6 8 10 11 10 2 0 4 -4 4 -10z m-37 -62 c-7 -26 -22 -48 -33
-48 -18 0 -19 34 -3 51 25 25 42 24 36 -3z m-79 -40 c34 -32 40 -61 19 -84
-10 -11 -15 -15 -10 -10 4 6 7 15 7 21 0 5 -7 2 -14 -7 -11 -15 -11 -30 1 -90
7 -40 13 -92 13 -115 -1 -24 4 -43 9 -43 6 0 7 15 4 35 -3 19 -3 35 0 35 3 0
21 -21 39 -47 18 -27 50 -68 72 -91 22 -24 34 -43 26 -42 -45 7 -55 -23 -19
-56 28 -25 149 -33 168 -10 15 18 11 51 -6 51 -28 0 -17 17 67 106 79 83 89
97 84 121 -11 54 76 110 124 79 18 -11 12 -143 -6 -149 -11 -3 -12 0 -2 19 10
22 10 22 -3 6 -8 -10 -28 -19 -43 -20 -25 -2 -31 -9 -45 -52 -8 -27 -21 -51
-27 -53 -7 -2 -12 -10 -12 -18 0 -9 -4 -13 -9 -9 -16 9 -31 -29 -19 -46 8 -12
9 -11 5 2 -4 11 3 20 18 27 27 12 68 66 57 76 -3 4 0 11 8 16 10 7 11 10 3 10
-24 0 -13 16 19 28 36 13 46 9 29 -12 -7 -8 -29 -50 -50 -93 -22 -46 -61 -104
-93 -138 -67 -73 -79 -94 -67 -116 6 -12 4 -21 -8 -30 -9 -8 -14 -9 -10 -2 8
14 -1 43 -15 43 -5 0 -6 -15 -2 -34 l6 -34 -39 13 c-21 8 -57 14 -80 15 -43 0
-43 0 -45 38 l-1 37 -4 -36 c-4 -34 -7 -37 -61 -53 -31 -9 -62 -19 -68 -22 -7
-3 -10 4 -9 18 1 13 3 33 4 45 1 14 11 25 32 32 39 14 36 14 43 -5 3 -8 2 -12
-4 -9 -6 4 -9 -5 -8 -19 1 -15 6 -26 10 -26 11 0 21 47 14 65 -4 13 7 15 68
15 40 0 93 -7 116 -15 48 -17 69 -12 24 6 -79 30 -208 26 -289 -10 -35 -16
-45 -17 -45 -6 0 8 -21 44 -47 82 -44 63 -48 73 -49 133 -1 36 -9 82 -18 102
-19 45 -20 96 -4 183 14 74 28 85 29 23 3 -129 5 -148 12 -148 4 0 12 0 18 0
8 0 8 4 0 13 -6 8 -11 51 -12 96 -1 72 -4 83 -21 90 -17 6 -15 10 20 49 44 48
61 51 96 20z m526 -98 c0 -5 -7 -7 -15 -4 -8 4 -15 8 -15 10 0 2 7 4 15 4 8 0
15 -4 15 -10z m63 -15 c-7 -21 -13 -19 -13 6 0 11 4 18 10 14 5 -3 7 -12 3
-20z m-324 -76 c17 -6 31 -17 31 -25 0 -17 -5 -17 -32 -3 -15 8 -27 8 -44 0
-29 -13 -40 2 -18 23 18 19 22 19 63 5z m19 -58 c4 -1 7 -7 7 -13 0 -7 -6 -12
-13 -10 -8 1 -11 -2 -8 -7 3 -5 -1 -15 -10 -22 -14 -11 -19 -9 -34 11 -10 14
-24 21 -33 17 -11 -4 -13 0 -10 13 6 23 28 29 66 19 15 -4 31 -8 35 -8z
m-1099 -32 c16 -47 13 -76 -15 -154 -14 -38 -28 -77 -31 -86 -4 -13 7 -19 46
-29 146 -35 202 -130 178 -302 l-8 -56 79 1 c62 0 88 -4 125 -22 76 -37 130
-117 143 -214 l6 -45 62 28 c33 15 73 31 88 34 42 10 48 -31 14 -98 -50 -99
-59 -253 -15 -276 15 -9 19 -7 19 5 0 8 4 15 9 15 5 0 14 14 21 30 7 17 17 30
22 30 5 0 6 5 2 12 -4 7 -3 8 4 4 7 -4 10 -24 8 -49 -3 -23 -5 -46 -5 -50 -1
-5 -4 -6 -8 -4 -7 5 -10 -12 -13 -85 -1 -10 -5 -18 -9 -18 -4 0 -3 -37 2 -82
6 -62 5 -88 -4 -103 -7 -11 -13 -45 -15 -75 -1 -30 -5 -68 -8 -85 -5 -28 -5
-28 15 8 17 33 20 57 21 170 0 95 6 156 20 217 28 120 26 116 43 94 21 -28 18
-15 -10 40 -14 27 -25 59 -25 70 0 20 -2 20 -20 -4 -10 -14 -29 -46 -41 -72
-12 -27 -27 -48 -32 -48 -6 0 -8 36 -5 89 3 73 9 100 34 148 26 54 28 65 20
109 -11 61 5 186 33 248 23 53 57 78 107 79 43 1 74 -30 93 -93 19 -64 13 -86
-59 -225 -38 -74 -70 -141 -70 -150 0 -8 -4 -15 -9 -15 -19 0 21 99 85 211 31
53 44 86 43 110 -1 23 -3 27 -6 12 -2 -13 -9 -23 -14 -23 -5 0 -9 -9 -9 -21 0
-22 -29 -81 -42 -87 -5 -2 -8 -10 -8 -18 0 -8 -6 -17 -14 -20 -7 -3 -19 -23
-27 -46 -15 -45 -32 -57 -55 -37 -14 12 -16 11 -13 -6 2 -10 15 -22 29 -26 15
-4 18 -7 8 -8 -19 -1 -15 -28 7 -46 6 -5 18 -40 25 -77 l12 -68 -37 -92 c-40
-97 -53 -165 -39 -191 6 -10 10 3 11 41 0 31 6 68 12 82 8 20 9 17 4 -22 -3
-25 0 -61 6 -79 9 -25 8 -36 -2 -48 -20 -24 -35 -71 -36 -114 0 -21 -7 -61
-16 -89 -8 -28 -13 -53 -11 -56 9 -8 27 41 33 91 5 41 8 47 13 27 8 -29 -13
-107 -33 -127 -12 -12 -19 -8 -46 34 -29 43 -32 53 -27 99 3 28 13 70 21 94
21 59 19 111 -7 207 -23 80 -23 81 -63 93 -131 39 -310 148 -420 257 -202 200
-308 486 -276 743 11 87 51 240 62 240 4 0 12 -14 18 -31z m1031 -47 c-7 -3
-16 2 -21 9 -16 25 -9 32 12 13 13 -12 16 -20 9 -22z m67 1 c-9 -9 -20 -14
-24 -10 -3 4 2 14 13 21 25 19 33 10 11 -11z m-68 -44 c-6 -3 1 -9 15 -11 25
-5 37 7 15 14 -6 2 5 11 24 20 l36 17 -6 -37 c-8 -57 -23 -67 -80 -56 l-48 9
-3 55 -3 55 30 -29 c20 -19 27 -32 20 -37z m-62 -82 c-3 -8 -1 -20 4 -28 8
-12 10 -12 19 1 9 13 10 13 10 0 0 -13 1 -13 10 0 8 12 10 12 16 -3 4 -11 10
-14 18 -9 14 12 46 11 46 0 0 -17 21 -7 30 15 10 22 10 22 7 -3 -2 -24 -4 -25
-74 -25 -54 0 -76 4 -89 17 -15 15 -14 48 2 48 3 0 4 -6 1 -13z m63 3 c0 -5
-4 -10 -9 -10 -6 0 -13 5 -16 10 -3 6 1 10 9 10 9 0 16 -4 16 -10z m52 -12
c-9 -9 -15 -9 -24 0 -9 9 -7 12 12 12 19 0 21 -3 12 -12z m972 -44 c18 -132
-9 -289 -74 -434 -55 -122 -100 -187 -193 -280 -143 -144 -308 -238 -515 -293
-107 -28 -131 -30 -287 -31 -138 -1 -172 -4 -183 -16 -7 -8 -1 8 14 35 24 46
25 56 19 125 -11 113 -9 125 31 200 l36 69 30 -15 c40 -21 116 -91 123 -115 9
-28 18 -23 40 24 29 61 121 150 178 172 26 10 50 15 54 11 7 -6 -9 -111 -23
-165 -7 -23 -6 -24 35 -17 86 13 166 71 221 157 18 27 31 51 29 53 -2 2 -40
-7 -84 -20 -44 -12 -81 -21 -83 -19 -10 10 9 35 26 35 15 0 25 16 42 63 40
111 125 173 261 192 l46 6 6 59 c10 113 66 186 180 232 60 24 64 23 71 -28z
m-534 -144 c0 -62 -19 -150 -31 -150 -4 0 -9 16 -11 36 l-3 36 -52 -64 c-29
-34 -69 -76 -89 -92 l-37 -29 6 55 c4 31 16 78 27 104 11 26 18 49 16 51 -10
10 -46 -79 -54 -129 -7 -49 -10 -53 -32 -50 -17 1 -21 -1 -12 -7 14 -9 -58
-42 -133 -61 l-40 -10 49 5 c27 3 74 16 104 30 31 14 59 22 62 18 8 -9 30 -94
30 -116 0 -8 -20 -22 -44 -31 -66 -25 -121 -69 -160 -128 -40 -58 -42 -56 -51
48 -5 66 -22 145 -24 116 -1 -7 4 -46 9 -85 6 -40 13 -90 16 -112 l5 -40 -31
38 c-17 20 -53 49 -78 64 -26 15 -48 28 -50 29 -2 1 8 24 22 51 26 50 65 85
111 103 23 9 25 15 25 68 0 165 179 308 388 311 l62 1 0 -60z m-705 -53 c0
-34 -5 -48 -23 -62 l-24 -17 8 48 c4 27 14 54 23 61 9 7 16 13 16 13 0 0 0
-20 0 -43z m238 -34 c15 -13 18 -14 12 -3 -6 11 -4 11 10 -2 16 -14 16 -18 3
-37 -8 -11 -17 -19 -19 -17 -2 2 -5 -28 -7 -67 -2 -40 -7 -74 -13 -75 -5 -2
-7 -8 -3 -13 3 -5 -10 -9 -28 -9 -31 0 -33 2 -32 32 1 18 -3 38 -8 45 -5 7 -7
17 -3 23 3 5 1 10 -5 10 -6 0 -15 11 -21 24 -6 13 -21 29 -33 36 -14 7 -22 20
-21 33 1 17 10 23 41 28 74 12 107 9 127 -8z m-198 -13 c-3 -5 -1 -10 4 -10 7
0 7 -7 -1 -20 -15 -23 -38 -27 -38 -6 0 8 7 22 16 30 17 18 28 21 19 6z m615
-75 c0 -13 -5 -27 -11 -30 -6 -4 -8 -13 -5 -21 3 -8 1 -14 -4 -14 -5 0 -12
-16 -16 -35 -3 -19 -10 -33 -14 -30 -4 2 -6 -7 -4 -20 1 -14 -2 -25 -8 -25 -6
0 -8 -7 -4 -15 3 -8 1 -15 -5 -15 -13 0 -8 82 6 92 6 5 5 8 -2 8 -23 0 -16 67
9 84 12 8 25 13 30 10 4 -3 5 2 2 10 -3 9 -1 16 6 16 6 0 8 5 4 12 -4 7 -3 8
4 4 7 -4 12 -18 12 -31z m-99 -213 c-5 -58 -15 -110 -21 -116 -9 -8 -10 -2 -6
24 13 75 15 136 5 182 -8 38 -8 52 2 65 23 27 32 -39 20 -155z m27 -54 c-5
-10 -10 -18 -12 -18 -3 0 -3 8 -1 18 2 9 4 26 5 37 1 20 1 20 9 0 5 -11 4 -28
-1 -37z m144 10 c-41 -59 -78 -92 -93 -83 -7 5 -10 4 -5 -3 10 -16 -13 -25
-30 -11 -12 10 -13 9 -9 -4 7 -16 -5 -22 -57 -31 -16 -3 -28 0 -28 5 0 6 26
37 58 69 48 47 71 62 123 79 35 11 65 20 67 20 2 1 -10 -18 -26 -41z"/>
<path d="M1920 2015 c-11 -13 -10 -14 4 -9 9 3 16 10 16 15 0 13 -6 11 -20 -6z"/>
<path d="M1852 1805 c0 -16 2 -22 5 -12 2 9 2 23 0 30 -3 6 -5 -1 -5 -18z"/>
<path d="M1896 1761 c-19 -7 -19 -8 3 -14 13 -3 20 -10 17 -15 -3 -5 3 -12 13
-15 16 -4 17 -1 7 24 -11 31 -11 31 -40 20z"/>
<path d="M1954 1702 c-6 -4 -7 -17 -3 -32 l7 -25 1 28 c1 18 5 26 12 21 6 -3
9 -15 6 -25 -3 -11 -2 -17 2 -14 5 2 14 -14 21 -36 8 -22 24 -51 37 -65 13
-14 23 -29 23 -33 0 -16 59 -33 97 -29 27 3 42 0 51 -11 8 -9 11 -10 7 -3 -3
6 -1 12 4 12 6 0 11 4 11 9 0 5 -28 11 -62 15 -35 4 -71 7 -80 8 -9 1 -15 5
-12 9 2 4 -7 14 -20 22 -14 10 -35 44 -52 87 -28 71 -31 75 -50 62z m173 -198
c-3 -3 -12 -4 -19 -1 -8 3 -5 6 6 6 11 1 17 -2 13 -5z"/>
<path d="M2402 1658 c-6 -7 -22 -43 -37 -80 -21 -52 -32 -68 -47 -68 -10 0
-17 -4 -14 -9 3 -5 -1 -11 -9 -15 -8 -3 -17 -1 -20 3 -6 11 -45 2 -45 -10 0
-13 14 -11 28 3 9 9 12 9 12 0 0 -16 43 -9 48 8 4 10 6 10 13 -1 6 -11 12 -9
28 6 12 10 19 21 16 23 -3 3 -12 -3 -21 -14 -20 -25 -15 -8 30 89 35 76 39 89
18 65z"/>
<path d="M1880 1651 c0 -5 7 -15 17 -22 15 -13 15 -12 4 9 -12 23 -21 28 -21
13z"/>
<path d="M2391 1564 c0 -11 3 -14 6 -6 3 7 2 16 -1 19 -3 4 -6 -2 -5 -13z"/>
<path d="M1980 1491 c0 -5 7 -12 16 -15 14 -5 15 -4 4 9 -14 17 -20 19 -20 6z"/>
<path d="M2262 1380 c0 -19 2 -27 5 -17 2 9 2 25 0 35 -3 9 -5 1 -5 -18z"/>
<path d="M3030 1366 c0 -2 7 -7 16 -10 8 -3 12 -2 9 4 -6 10 -25 14 -25 6z"/>
<path d="M2771 1124 c0 -11 3 -14 6 -6 3 7 2 16 -1 19 -3 4 -6 -2 -5 -13z"/>
<path d="M2886 1013 c-6 -14 -5 -15 5 -6 7 7 10 15 7 18 -3 3 -9 -2 -12 -12z"/>
<path d="M2768 803 c7 -3 16 -2 19 1 4 3 -2 6 -13 5 -11 0 -14 -3 -6 -6z"/>
<path d="M2646 1387 c3 -10 9 -15 12 -12 3 3 0 11 -7 18 -10 9 -11 8 -5 -6z"/>
<path d="M2681 1354 c0 -11 3 -14 6 -6 3 7 2 16 -1 19 -3 4 -6 -2 -5 -13z"/>
<path d="M2423 1268 c-18 -11 -33 -27 -33 -35 0 -12 3 -13 13 -4 8 6 17 8 20
4 4 -3 7 1 7 10 0 10 7 17 15 17 8 0 15 7 15 15 0 8 -1 15 -2 14 -2 0 -18 -10
-35 -21z"/>
<path d="M2356 1225 c-3 -9 0 -15 9 -15 8 0 15 7 15 15 0 8 -4 15 -9 15 -5 0
-11 -7 -15 -15z"/>
<path d="M2330 1208 c0 -12 3 -18 7 -14 11 10 12 36 2 36 -5 0 -9 -10 -9 -22z"/>
<path d="M2296 1201 c-3 -5 1 -11 9 -15 8 -3 15 -1 15 4 0 13 -18 22 -24 11z"/>
<path d="M2446 1193 c-6 -14 -5 -15 5 -6 7 7 10 15 7 18 -3 3 -9 -2 -12 -12z"/>
<path d="M2081 1294 c0 -11 3 -14 6 -6 3 7 2 16 -1 19 -3 4 -6 -2 -5 -13z"/>
<path d="M2660 935 c-7 -9 -11 -17 -9 -20 3 -2 10 5 17 15 14 24 10 26 -8 5z"/>
<path d="M3420 2401 c0 -8 161 -4 169 5 2 2 -35 4 -82 4 -48 0 -87 -4 -87 -9z"/>
<path d="M773 2335 c-40 -6 -76 -15 -80 -19 -4 -5 2 -5 14 -2 13 4 61 7 108 7
47 1 85 2 85 4 0 2 -12 7 -27 12 -18 6 -54 5 -100 -2z"/>
<path d="M3550 2340 c0 -5 5 -10 11 -10 5 0 7 5 4 10 -3 6 -8 10 -11 10 -2 0
-4 -4 -4 -10z"/>
<path d="M3421 2324 c0 -11 3 -14 6 -6 3 7 2 16 -1 19 -3 4 -6 -2 -5 -13z"/>
<path d="M3445 2330 c-3 -5 -1 -10 4 -10 6 0 11 5 11 10 0 6 -2 10 -4 10 -3 0
-8 -4 -11 -10z"/>
<path d="M2418 2323 c6 -2 18 -2 25 0 6 3 1 5 -13 5 -14 0 -19 -2 -12 -5z"/>
<path d="M865 2283 c-55 -32 -63 -34 -96 -24 -47 14 -212 15 -204 1 3 -5 36
-10 73 -10 60 0 105 -12 92 -23 -3 -3 -25 -15 -50 -28 -86 -47 -190 -126 -190
-146 0 -8 39 18 47 30 10 17 98 74 191 123 61 33 74 37 82 24 8 -13 10 -12 10
3 0 10 6 17 12 15 7 -3 21 4 32 13 10 10 22 16 26 14 4 -3 15 6 24 20 9 14 15
25 14 24 -2 0 -30 -17 -63 -36z"/>
<path d="M3348 2313 c7 -3 16 -2 19 1 4 3 -2 6 -13 5 -11 0 -14 -3 -6 -6z"/>
<path d="M1990 2290 c0 -5 5 -10 11 -10 5 0 7 5 4 10 -3 6 -8 10 -11 10 -2 0
-4 -4 -4 -10z"/>
<path d="M2702 2255 c0 -16 2 -22 5 -12 2 9 2 23 0 30 -3 6 -5 -1 -5 -18z"/>
<path d="M3168 2273 c7 -3 16 -2 19 1 4 3 -2 6 -13 5 -11 0 -14 -3 -6 -6z"/>
<path d="M1881 2244 c0 -11 3 -14 6 -6 3 7 2 16 -1 19 -3 4 -6 -2 -5 -13z"/>
<path d="M3098 2253 c7 -3 16 -2 19 1 4 3 -2 6 -13 5 -11 0 -14 -3 -6 -6z"/>
<path d="M800 2196 c-141 -58 -304 -151 -294 -168 4 -7 10 -4 16 6 5 9 13 14
17 12 4 -3 17 2 28 12 25 22 89 57 150 81 26 11 66 27 88 37 52 23 63 24 91
14 34 -13 30 -33 -13 -75 -40 -38 -22 -39 30 -1 34 25 37 68 5 90 -29 21 -51
19 -118 -8z"/>
<path d="M1170 2210 l-45 -7 53 -1 c33 -1 51 2 47 8 -3 6 -7 9 -8 8 -1 0 -22
-4 -47 -8z"/>
<path d="M2957 2205 c-11 -8 -25 -11 -33 -8 -8 3 -14 -1 -14 -11 0 -13 4 -14
28 -4 32 14 47 26 41 32 -2 2 -12 -2 -22 -9z"/>
<path d="M1323 2203 c9 -2 25 -2 35 0 9 3 1 5 -18 5 -19 0 -27 -2 -17 -5z"/>
<path d="M1443 2195 c0 -7 6 -12 13 -11 23 3 26 13 6 18 -11 3 -19 0 -19 -7z"/>
<path d="M1028 2183 c7 -3 16 -2 19 1 4 3 -2 6 -13 5 -11 0 -14 -3 -6 -6z"/>
<path d="M1498 2173 c7 -3 16 -2 19 1 4 3 -2 6 -13 5 -11 0 -14 -3 -6 -6z"/>
<path d="M1561 2161 c-8 -5 -9 -11 -3 -15 5 -3 12 1 16 9 6 17 6 18 -13 6z"/>
<path d="M2880 2159 c0 -5 5 -7 10 -4 6 3 10 8 10 11 0 2 -4 4 -10 4 -5 0 -10
-5 -10 -11z"/>
<path d="M2820 2130 c0 -5 4 -10 9 -10 6 0 13 5 16 10 3 6 -1 10 -9 10 -9 0
-16 -4 -16 -10z"/>
<path d="M1616 2121 c6 -6 21 -14 34 -16 30 -6 14 10 -20 20 -18 5 -22 4 -14
-4z"/>
<path d="M1073 2113 c-35 -2 -63 -9 -63 -14 0 -6 3 -8 8 -6 4 3 57 8 117 12
204 13 437 -23 559 -85 32 -16 53 -24 47 -16 -21 25 -126 65 -228 86 -104 21
-314 32 -440 23z"/>
<path d="M2790 2110 c0 -5 5 -10 10 -10 6 0 10 5 10 10 0 6 -4 10 -10 10 -5 0
-10 -4 -10 -10z"/>
<path d="M978 2093 c7 -3 16 -2 19 1 4 3 -2 6 -13 5 -11 0 -14 -3 -6 -6z"/>
<path d="M2351 2074 c0 -11 3 -14 6 -6 3 7 2 16 -1 19 -3 4 -6 -2 -5 -13z"/>
<path d="M2739 2063 c-13 -16 -12 -17 4 -4 16 13 21 21 13 21 -2 0 -10 -8 -17
-17z"/>
<path d="M1720 2060 c20 -13 33 -13 25 0 -3 6 -14 10 -23 10 -15 0 -15 -2 -2
-10z"/>
<path d="M1708 1983 c7 -3 16 -2 19 1 4 3 -2 6 -13 5 -11 0 -14 -3 -6 -6z"/>
<path d="M2380 1980 c0 -5 5 -10 11 -10 5 0 7 5 4 10 -3 6 -8 10 -11 10 -2 0
-4 -4 -4 -10z"/>
<path d="M2838 1963 c7 -3 16 -2 19 1 4 3 -2 6 -13 5 -11 0 -14 -3 -6 -6z"/>
<path d="M1300 1919 c-52 -4 -124 -12 -160 -18 -36 -6 -69 -11 -74 -11 -5 0
-7 -2 -5 -5 3 -2 54 2 115 10 188 25 459 15 548 -21 13 -5 17 -4 13 3 -9 14
-160 41 -262 46 -44 2 -123 0 -175 -4z"/>
<path d="M2380 1920 c0 -5 5 -10 10 -10 6 0 10 5 10 10 0 6 -4 10 -10 10 -5 0
-10 -4 -10 -10z"/>
<path d="M2378 1883 c7 -3 16 -2 19 1 4 3 -2 6 -13 5 -11 0 -14 -3 -6 -6z"/>
<path d="M2385 1820 c3 -5 8 -10 11 -10 2 0 4 5 4 10 0 6 -5 10 -11 10 -5 0
-7 -4 -4 -10z"/>
<path d="M2657 1743 c-3 -5 45 -8 106 -9 148 -1 262 -25 421 -91 32 -13 60
-22 62 -20 15 15 -220 93 -337 112 -99 16 -245 20 -252 8z"/>
<path d="M2730 1590 c0 -5 5 -10 11 -10 5 0 7 5 4 10 -3 6 -8 10 -11 10 -2 0
-4 -4 -4 -10z"/>
<path d="M2642 1512 c99 -37 175 -83 254 -155 35 -32 64 -54 64 -49 0 5 -33
38 -72 72 -76 64 -226 145 -288 155 -20 3 -2 -7 42 -23z"/>
<path d="M1695 1416 c-83 -39 -210 -133 -280 -207 -47 -50 -36 -45 24 10 110
101 197 160 306 208 27 12 43 22 35 22 -8 0 -46 -15 -85 -33z"/>
</g>
</svg>
